<mxfile host="app.diagrams.net" modified="2024-04-23T15:36:48.730Z" agent="Mozilla/5.0 (Windows NT 10.0; Win64; x64) AppleWebKit/537.36 (KHTML, like Gecko) Chrome/124.0.0.0 Safari/537.36" etag="fN9a0qKQObXZVJhxNmKE" version="24.2.8" type="device">
  <diagram name="PÃ¡gina-1" id="mBDjjEcw4cKG5DQh-Xl2">
    <mxGraphModel dx="2140" dy="1865" grid="1" gridSize="10" guides="1" tooltips="1" connect="1" arrows="1" fold="1" page="1" pageScale="1" pageWidth="827" pageHeight="1169" math="0" shadow="0">
      <root>
        <mxCell id="0" />
        <mxCell id="1" parent="0" />
        <mxCell id="X4g94l9QdzFIB3vsX_Z2-153" style="edgeStyle=orthogonalEdgeStyle;rounded=0;orthogonalLoop=1;jettySize=auto;html=1;endArrow=none;endFill=0;startArrow=baseDash;startFill=0;" parent="1" source="X4g94l9QdzFIB3vsX_Z2-1" target="X4g94l9QdzFIB3vsX_Z2-152" edge="1">
          <mxGeometry relative="1" as="geometry" />
        </mxCell>
        <mxCell id="X4g94l9QdzFIB3vsX_Z2-1" value="Senior Teacher" style="rounded=0;whiteSpace=wrap;html=1;strokeWidth=3;fillColor=#FF7729;" parent="1" vertex="1">
          <mxGeometry x="190" y="80" width="120" height="60" as="geometry" />
        </mxCell>
        <mxCell id="X4g94l9QdzFIB3vsX_Z2-10" value="" style="rounded=0;orthogonalLoop=1;jettySize=auto;html=1;endArrow=none;endFill=0;" parent="1" source="X4g94l9QdzFIB3vsX_Z2-3" target="X4g94l9QdzFIB3vsX_Z2-11" edge="1">
          <mxGeometry relative="1" as="geometry" />
        </mxCell>
        <mxCell id="X4g94l9QdzFIB3vsX_Z2-3" value="name" style="ellipse;whiteSpace=wrap;html=1;fillColor=#00EB00;" parent="1" vertex="1">
          <mxGeometry x="-600" y="10" width="120" height="50" as="geometry" />
        </mxCell>
        <mxCell id="X4g94l9QdzFIB3vsX_Z2-269" style="edgeStyle=orthogonalEdgeStyle;rounded=0;orthogonalLoop=1;jettySize=auto;html=1;endArrow=none;endFill=0;" parent="1" source="X4g94l9QdzFIB3vsX_Z2-11" target="X4g94l9QdzFIB3vsX_Z2-268" edge="1">
          <mxGeometry relative="1" as="geometry" />
        </mxCell>
        <mxCell id="IT_xZYxQ61ZV-D8Yhbmj-3" style="edgeStyle=orthogonalEdgeStyle;rounded=0;orthogonalLoop=1;jettySize=auto;html=1;endArrow=none;endFill=0;" parent="1" source="X4g94l9QdzFIB3vsX_Z2-11" target="IT_xZYxQ61ZV-D8Yhbmj-1" edge="1">
          <mxGeometry relative="1" as="geometry">
            <Array as="points">
              <mxPoint x="-330" y="70" />
              <mxPoint x="-330" y="70" />
            </Array>
          </mxGeometry>
        </mxCell>
        <mxCell id="JDC6ibPOijJ4rvLME-x0-4" style="edgeStyle=orthogonalEdgeStyle;rounded=0;orthogonalLoop=1;jettySize=auto;html=1;endArrow=none;endFill=0;" parent="1" source="X4g94l9QdzFIB3vsX_Z2-11" target="JDC6ibPOijJ4rvLME-x0-3" edge="1">
          <mxGeometry relative="1" as="geometry" />
        </mxCell>
        <mxCell id="X4g94l9QdzFIB3vsX_Z2-11" value="Teacher" style="rounded=0;whiteSpace=wrap;html=1;strokeWidth=3;fillColor=#FF7729;" parent="1" vertex="1">
          <mxGeometry x="-390" y="-33.25" width="120" height="60" as="geometry" />
        </mxCell>
        <mxCell id="X4g94l9QdzFIB3vsX_Z2-20" style="rounded=0;orthogonalLoop=1;jettySize=auto;html=1;endArrow=none;endFill=0;" parent="1" source="X4g94l9QdzFIB3vsX_Z2-12" target="X4g94l9QdzFIB3vsX_Z2-11" edge="1">
          <mxGeometry relative="1" as="geometry" />
        </mxCell>
        <mxCell id="X4g94l9QdzFIB3vsX_Z2-12" value="&lt;u&gt;teacherId&lt;/u&gt;" style="ellipse;whiteSpace=wrap;html=1;fillColor=#00EB00;" parent="1" vertex="1">
          <mxGeometry x="-600" y="-63.25" width="120" height="50" as="geometry" />
        </mxCell>
        <mxCell id="X4g94l9QdzFIB3vsX_Z2-161" style="edgeStyle=orthogonalEdgeStyle;rounded=0;orthogonalLoop=1;jettySize=auto;html=1;endArrow=none;endFill=0;" parent="1" source="X4g94l9QdzFIB3vsX_Z2-25" target="X4g94l9QdzFIB3vsX_Z2-159" edge="1">
          <mxGeometry relative="1" as="geometry" />
        </mxCell>
        <mxCell id="X4g94l9QdzFIB3vsX_Z2-25" value="Programme" style="rounded=0;whiteSpace=wrap;html=1;strokeWidth=3;fillColor=#FF7729;" parent="1" vertex="1">
          <mxGeometry x="680" y="80" width="120" height="60" as="geometry" />
        </mxCell>
        <mxCell id="X4g94l9QdzFIB3vsX_Z2-33" style="rounded=0;orthogonalLoop=1;jettySize=auto;html=1;endArrow=none;endFill=0;" parent="1" source="X4g94l9QdzFIB3vsX_Z2-26" target="X4g94l9QdzFIB3vsX_Z2-25" edge="1">
          <mxGeometry relative="1" as="geometry" />
        </mxCell>
        <mxCell id="X4g94l9QdzFIB3vsX_Z2-26" value="&lt;u&gt;programmeCode&lt;/u&gt;" style="ellipse;whiteSpace=wrap;html=1;fillColor=#00EB00;" parent="1" vertex="1">
          <mxGeometry x="693" y="-23.25" width="120" height="50" as="geometry" />
        </mxCell>
        <mxCell id="X4g94l9QdzFIB3vsX_Z2-34" value="" style="rounded=0;orthogonalLoop=1;jettySize=auto;html=1;endArrow=none;endFill=0;" parent="1" source="X4g94l9QdzFIB3vsX_Z2-27" target="X4g94l9QdzFIB3vsX_Z2-25" edge="1">
          <mxGeometry relative="1" as="geometry" />
        </mxCell>
        <mxCell id="X4g94l9QdzFIB3vsX_Z2-27" value="ProgrammeName" style="ellipse;whiteSpace=wrap;html=1;fillColor=#00EB00;" parent="1" vertex="1">
          <mxGeometry x="833" y="-13.25" width="120" height="50" as="geometry" />
        </mxCell>
        <mxCell id="X4g94l9QdzFIB3vsX_Z2-35" value="Course" style="rounded=0;whiteSpace=wrap;html=1;strokeWidth=3;fillColor=#FF7729;" parent="1" vertex="1">
          <mxGeometry x="1240" y="75" width="120" height="60" as="geometry" />
        </mxCell>
        <mxCell id="X4g94l9QdzFIB3vsX_Z2-36" style="rounded=0;orthogonalLoop=1;jettySize=auto;html=1;endArrow=none;endFill=0;" parent="1" source="X4g94l9QdzFIB3vsX_Z2-37" target="X4g94l9QdzFIB3vsX_Z2-35" edge="1">
          <mxGeometry relative="1" as="geometry" />
        </mxCell>
        <mxCell id="X4g94l9QdzFIB3vsX_Z2-37" value="&lt;u&gt;courseCode&lt;/u&gt;" style="ellipse;whiteSpace=wrap;html=1;fillColor=#00EB00;" parent="1" vertex="1">
          <mxGeometry x="1470" y="70" width="120" height="50" as="geometry" />
        </mxCell>
        <mxCell id="X4g94l9QdzFIB3vsX_Z2-38" value="" style="rounded=0;orthogonalLoop=1;jettySize=auto;html=1;endArrow=none;endFill=0;" parent="1" source="X4g94l9QdzFIB3vsX_Z2-39" target="X4g94l9QdzFIB3vsX_Z2-35" edge="1">
          <mxGeometry relative="1" as="geometry" />
        </mxCell>
        <mxCell id="X4g94l9QdzFIB3vsX_Z2-39" value="courseName" style="ellipse;whiteSpace=wrap;html=1;fillColor=#00EB00;" parent="1" vertex="1">
          <mxGeometry x="1470" y="-15" width="120" height="50" as="geometry" />
        </mxCell>
        <mxCell id="X4g94l9QdzFIB3vsX_Z2-40" style="rounded=0;orthogonalLoop=1;jettySize=auto;html=1;endArrow=none;endFill=0;" parent="1" source="X4g94l9QdzFIB3vsX_Z2-41" target="X4g94l9QdzFIB3vsX_Z2-35" edge="1">
          <mxGeometry relative="1" as="geometry" />
        </mxCell>
        <mxCell id="X4g94l9QdzFIB3vsX_Z2-41" value="credits" style="ellipse;whiteSpace=wrap;html=1;fillColor=#00EB00;" parent="1" vertex="1">
          <mxGeometry x="1470" y="150" width="120" height="50" as="geometry" />
        </mxCell>
        <mxCell id="X4g94l9QdzFIB3vsX_Z2-42" style="rounded=0;orthogonalLoop=1;jettySize=auto;html=1;endArrow=none;endFill=0;" parent="1" source="X4g94l9QdzFIB3vsX_Z2-43" target="X4g94l9QdzFIB3vsX_Z2-35" edge="1">
          <mxGeometry relative="1" as="geometry" />
        </mxCell>
        <mxCell id="X4g94l9QdzFIB3vsX_Z2-43" value="level" style="ellipse;whiteSpace=wrap;html=1;fillColor=#00EB00;" parent="1" vertex="1">
          <mxGeometry x="1480" y="-95.25" width="120" height="50" as="geometry" />
        </mxCell>
        <mxCell id="X4g94l9QdzFIB3vsX_Z2-171" style="rounded=0;orthogonalLoop=1;jettySize=auto;html=1;entryX=0;entryY=1;entryDx=0;entryDy=0;endArrow=none;endFill=0;" parent="1" source="X4g94l9QdzFIB3vsX_Z2-50" target="X4g94l9QdzFIB3vsX_Z2-167" edge="1">
          <mxGeometry relative="1" as="geometry" />
        </mxCell>
        <mxCell id="X4g94l9QdzFIB3vsX_Z2-174" style="rounded=0;orthogonalLoop=1;jettySize=auto;html=1;endArrow=none;endFill=0;" parent="1" source="X4g94l9QdzFIB3vsX_Z2-50" target="X4g94l9QdzFIB3vsX_Z2-173" edge="1">
          <mxGeometry relative="1" as="geometry" />
        </mxCell>
        <mxCell id="X4g94l9QdzFIB3vsX_Z2-50" value="" style="rounded=0;whiteSpace=wrap;html=1;strokeWidth=3;" parent="1" vertex="1">
          <mxGeometry x="955" y="342" width="145" height="85" as="geometry" />
        </mxCell>
        <mxCell id="X4g94l9QdzFIB3vsX_Z2-55" style="rounded=0;orthogonalLoop=1;jettySize=auto;html=1;endArrow=none;endFill=0;" parent="1" source="X4g94l9QdzFIB3vsX_Z2-56" target="X4g94l9QdzFIB3vsX_Z2-50" edge="1">
          <mxGeometry relative="1" as="geometry" />
        </mxCell>
        <mxCell id="X4g94l9QdzFIB3vsX_Z2-56" value="&lt;u&gt;academicYear&lt;/u&gt;" style="ellipse;whiteSpace=wrap;html=1;fillColor=#00EB00;" parent="1" vertex="1">
          <mxGeometry x="800" y="354.5" width="120" height="50" as="geometry" />
        </mxCell>
        <mxCell id="X4g94l9QdzFIB3vsX_Z2-57" style="rounded=0;orthogonalLoop=1;jettySize=auto;html=1;endArrow=none;endFill=0;" parent="1" source="X4g94l9QdzFIB3vsX_Z2-58" target="X4g94l9QdzFIB3vsX_Z2-50" edge="1">
          <mxGeometry relative="1" as="geometry">
            <mxPoint x="1154" y="474.88636363636397" as="targetPoint" />
          </mxGeometry>
        </mxCell>
        <mxCell id="X4g94l9QdzFIB3vsX_Z2-58" value="studyYear" style="ellipse;whiteSpace=wrap;html=1;fillColor=#00EB00;" parent="1" vertex="1">
          <mxGeometry x="970" y="242" width="120" height="50" as="geometry" />
        </mxCell>
        <mxCell id="X4g94l9QdzFIB3vsX_Z2-61" style="rounded=0;orthogonalLoop=1;jettySize=auto;html=1;endArrow=none;endFill=0;" parent="1" source="X4g94l9QdzFIB3vsX_Z2-62" target="X4g94l9QdzFIB3vsX_Z2-50" edge="1">
          <mxGeometry relative="1" as="geometry" />
        </mxCell>
        <mxCell id="X4g94l9QdzFIB3vsX_Z2-62" value="courseType" style="ellipse;whiteSpace=wrap;html=1;fillColor=#00EB00;" parent="1" vertex="1">
          <mxGeometry x="1130" y="360" width="120" height="50" as="geometry" />
        </mxCell>
        <mxCell id="X4g94l9QdzFIB3vsX_Z2-65" style="edgeStyle=orthogonalEdgeStyle;rounded=0;orthogonalLoop=1;jettySize=auto;html=1;exitX=0.5;exitY=1;exitDx=0;exitDy=0;" parent="1" edge="1">
          <mxGeometry relative="1" as="geometry">
            <mxPoint x="1262.5" y="310" as="sourcePoint" />
            <mxPoint x="1262.5" y="310" as="targetPoint" />
          </mxGeometry>
        </mxCell>
        <mxCell id="X4g94l9QdzFIB3vsX_Z2-189" style="edgeStyle=orthogonalEdgeStyle;rounded=0;orthogonalLoop=1;jettySize=auto;html=1;endArrow=none;endFill=0;" parent="1" target="X4g94l9QdzFIB3vsX_Z2-186" edge="1">
          <mxGeometry relative="1" as="geometry">
            <mxPoint x="730" y="-265.1851851851852" as="sourcePoint" />
          </mxGeometry>
        </mxCell>
        <mxCell id="X4g94l9QdzFIB3vsX_Z2-70" style="rounded=0;orthogonalLoop=1;jettySize=auto;html=1;endArrow=none;endFill=0;" parent="1" source="X4g94l9QdzFIB3vsX_Z2-71" edge="1">
          <mxGeometry relative="1" as="geometry">
            <mxPoint x="715.1127819548872" y="-295.2499999999998" as="targetPoint" />
          </mxGeometry>
        </mxCell>
        <mxCell id="X4g94l9QdzFIB3vsX_Z2-71" value="studyPeriod" style="ellipse;whiteSpace=wrap;html=1;fillColor=#00EB00;" parent="1" vertex="1">
          <mxGeometry x="800" y="-358.25" width="120" height="50" as="geometry" />
        </mxCell>
        <mxCell id="X4g94l9QdzFIB3vsX_Z2-72" style="rounded=0;orthogonalLoop=1;jettySize=auto;html=1;endArrow=none;endFill=0;" parent="1" source="X4g94l9QdzFIB3vsX_Z2-73" target="X4g94l9QdzFIB3vsX_Z2-194" edge="1">
          <mxGeometry relative="1" as="geometry">
            <mxPoint x="670" y="-295.2499999999998" as="targetPoint" />
          </mxGeometry>
        </mxCell>
        <mxCell id="X4g94l9QdzFIB3vsX_Z2-73" value="academicYear" style="ellipse;whiteSpace=wrap;html=1;fillColor=#00EB00;" parent="1" vertex="1">
          <mxGeometry x="670" y="-500" width="120" height="50" as="geometry" />
        </mxCell>
        <mxCell id="X4g94l9QdzFIB3vsX_Z2-74" style="rounded=0;orthogonalLoop=1;jettySize=auto;html=1;endArrow=none;endFill=0;" parent="1" source="X4g94l9QdzFIB3vsX_Z2-75" target="X4g94l9QdzFIB3vsX_Z2-194" edge="1">
          <mxGeometry relative="1" as="geometry">
            <mxPoint x="623.0827067669172" y="-295.2499999999998" as="targetPoint" />
          </mxGeometry>
        </mxCell>
        <mxCell id="X4g94l9QdzFIB3vsX_Z2-75" value="instanceId" style="ellipse;whiteSpace=wrap;html=1;fontStyle=4;fillColor=#00EB00;" parent="1" vertex="1">
          <mxGeometry x="742.5" y="-428.75" width="120" height="50" as="geometry" />
        </mxCell>
        <mxCell id="X4g94l9QdzFIB3vsX_Z2-78" style="edgeStyle=orthogonalEdgeStyle;rounded=0;orthogonalLoop=1;jettySize=auto;html=1;exitX=0.5;exitY=1;exitDx=0;exitDy=0;" parent="1" source="X4g94l9QdzFIB3vsX_Z2-75" target="X4g94l9QdzFIB3vsX_Z2-75" edge="1">
          <mxGeometry relative="1" as="geometry" />
        </mxCell>
        <mxCell id="X4g94l9QdzFIB3vsX_Z2-223" style="edgeStyle=orthogonalEdgeStyle;rounded=0;orthogonalLoop=1;jettySize=auto;html=1;" parent="1" source="X4g94l9QdzFIB3vsX_Z2-225" target="X4g94l9QdzFIB3vsX_Z2-218" edge="1">
          <mxGeometry relative="1" as="geometry">
            <mxPoint x="137.5" y="-357.75" as="sourcePoint" />
          </mxGeometry>
        </mxCell>
        <mxCell id="X4g94l9QdzFIB3vsX_Z2-112" style="edgeStyle=orthogonalEdgeStyle;rounded=0;orthogonalLoop=1;jettySize=auto;html=1;exitX=0.5;exitY=1;exitDx=0;exitDy=0;" parent="1" edge="1">
          <mxGeometry relative="1" as="geometry">
            <mxPoint x="380" y="414.5" as="sourcePoint" />
            <mxPoint x="380" y="414.5" as="targetPoint" />
          </mxGeometry>
        </mxCell>
        <mxCell id="X4g94l9QdzFIB3vsX_Z2-114" style="rounded=0;orthogonalLoop=1;jettySize=auto;html=1;endArrow=none;endFill=0;" parent="1" source="X4g94l9QdzFIB3vsX_Z2-113" target="X4g94l9QdzFIB3vsX_Z2-225" edge="1">
          <mxGeometry relative="1" as="geometry">
            <mxPoint x="-47.5" y="-454.9330985915494" as="targetPoint" />
          </mxGeometry>
        </mxCell>
        <mxCell id="X4g94l9QdzFIB3vsX_Z2-113" value="assignedHours" style="ellipse;whiteSpace=wrap;html=1;fillColor=#00EB00;" parent="1" vertex="1">
          <mxGeometry x="40" y="-510" width="120" height="50" as="geometry" />
        </mxCell>
        <mxCell id="X4g94l9QdzFIB3vsX_Z2-243" style="edgeStyle=orthogonalEdgeStyle;rounded=0;orthogonalLoop=1;jettySize=auto;html=1;endArrow=none;endFill=0;" parent="1" source="X4g94l9QdzFIB3vsX_Z2-124" target="X4g94l9QdzFIB3vsX_Z2-242" edge="1">
          <mxGeometry relative="1" as="geometry" />
        </mxCell>
        <mxCell id="X4g94l9QdzFIB3vsX_Z2-257" style="edgeStyle=orthogonalEdgeStyle;rounded=0;orthogonalLoop=1;jettySize=auto;html=1;endArrow=none;endFill=0;" parent="1" source="X4g94l9QdzFIB3vsX_Z2-124" target="X4g94l9QdzFIB3vsX_Z2-255" edge="1">
          <mxGeometry relative="1" as="geometry" />
        </mxCell>
        <mxCell id="X4g94l9QdzFIB3vsX_Z2-124" value="Student" style="rounded=0;whiteSpace=wrap;html=1;strokeWidth=3;fillColor=#FF7729;" parent="1" vertex="1">
          <mxGeometry x="967.5" y="675" width="120" height="60" as="geometry" />
        </mxCell>
        <mxCell id="X4g94l9QdzFIB3vsX_Z2-125" style="rounded=0;orthogonalLoop=1;jettySize=auto;html=1;endArrow=none;endFill=0;" parent="1" source="X4g94l9QdzFIB3vsX_Z2-126" target="X4g94l9QdzFIB3vsX_Z2-124" edge="1">
          <mxGeometry relative="1" as="geometry" />
        </mxCell>
        <mxCell id="X4g94l9QdzFIB3vsX_Z2-126" value="&lt;u&gt;studentId&lt;/u&gt;" style="ellipse;whiteSpace=wrap;html=1;fillColor=#00EB00;" parent="1" vertex="1">
          <mxGeometry x="1140" y="610" width="120" height="50" as="geometry" />
        </mxCell>
        <mxCell id="X4g94l9QdzFIB3vsX_Z2-127" style="rounded=0;orthogonalLoop=1;jettySize=auto;html=1;endArrow=none;endFill=0;" parent="1" source="X4g94l9QdzFIB3vsX_Z2-128" target="X4g94l9QdzFIB3vsX_Z2-124" edge="1">
          <mxGeometry relative="1" as="geometry" />
        </mxCell>
        <mxCell id="X4g94l9QdzFIB3vsX_Z2-128" value="name" style="ellipse;whiteSpace=wrap;html=1;fillColor=#00EB00;" parent="1" vertex="1">
          <mxGeometry x="1140" y="680" width="120" height="50" as="geometry" />
        </mxCell>
        <mxCell id="X4g94l9QdzFIB3vsX_Z2-134" style="rounded=0;orthogonalLoop=1;jettySize=auto;html=1;endArrow=none;endFill=0;" parent="1" source="X4g94l9QdzFIB3vsX_Z2-132" target="X4g94l9QdzFIB3vsX_Z2-124" edge="1">
          <mxGeometry relative="1" as="geometry" />
        </mxCell>
        <mxCell id="X4g94l9QdzFIB3vsX_Z2-132" value="graduated" style="ellipse;whiteSpace=wrap;html=1;fillColor=#00EB00;" parent="1" vertex="1">
          <mxGeometry x="1140" y="750" width="120" height="50" as="geometry" />
        </mxCell>
        <mxCell id="X4g94l9QdzFIB3vsX_Z2-261" style="rounded=0;orthogonalLoop=1;jettySize=auto;html=1;endArrow=none;endFill=0;" parent="1" source="X4g94l9QdzFIB3vsX_Z2-141" target="X4g94l9QdzFIB3vsX_Z2-252" edge="1">
          <mxGeometry relative="1" as="geometry" />
        </mxCell>
        <mxCell id="X4g94l9QdzFIB3vsX_Z2-141" value="status" style="ellipse;whiteSpace=wrap;html=1;fillColor=#00EB00;" parent="1" vertex="1">
          <mxGeometry x="464" y="410" width="120" height="50" as="geometry" />
        </mxCell>
        <mxCell id="X4g94l9QdzFIB3vsX_Z2-262" style="rounded=0;orthogonalLoop=1;jettySize=auto;html=1;endArrow=none;endFill=0;" parent="1" source="X4g94l9QdzFIB3vsX_Z2-143" target="X4g94l9QdzFIB3vsX_Z2-252" edge="1">
          <mxGeometry relative="1" as="geometry" />
        </mxCell>
        <mxCell id="X4g94l9QdzFIB3vsX_Z2-143" value="grade" style="ellipse;whiteSpace=wrap;html=1;fillColor=#00EB00;" parent="1" vertex="1">
          <mxGeometry x="310" y="410" width="120" height="50" as="geometry" />
        </mxCell>
        <mxCell id="X4g94l9QdzFIB3vsX_Z2-154" style="edgeStyle=orthogonalEdgeStyle;rounded=0;orthogonalLoop=1;jettySize=auto;html=1;endArrow=none;endFill=0;" parent="1" source="X4g94l9QdzFIB3vsX_Z2-152" target="X4g94l9QdzFIB3vsX_Z2-25" edge="1">
          <mxGeometry relative="1" as="geometry" />
        </mxCell>
        <mxCell id="X4g94l9QdzFIB3vsX_Z2-152" value="oversees" style="rhombus;whiteSpace=wrap;html=1;fillColor=#216BFF;" parent="1" vertex="1">
          <mxGeometry x="444" y="70" width="140" height="80" as="geometry" />
        </mxCell>
        <mxCell id="X4g94l9QdzFIB3vsX_Z2-157" value="" style="curved=1;endArrow=none;html=1;rounded=0;endFill=0;strokeWidth=3;" parent="1" edge="1">
          <mxGeometry width="50" height="50" relative="1" as="geometry">
            <mxPoint x="322" y="121" as="sourcePoint" />
            <mxPoint x="322" y="100" as="targetPoint" />
            <Array as="points">
              <mxPoint x="312" y="121" />
              <mxPoint x="312" y="101" />
            </Array>
          </mxGeometry>
        </mxCell>
        <mxCell id="X4g94l9QdzFIB3vsX_Z2-162" style="rounded=0;orthogonalLoop=1;jettySize=auto;html=1;endArrow=none;endFill=0;" parent="1" source="X4g94l9QdzFIB3vsX_Z2-159" target="X4g94l9QdzFIB3vsX_Z2-35" edge="1">
          <mxGeometry relative="1" as="geometry" />
        </mxCell>
        <mxCell id="X4g94l9QdzFIB3vsX_Z2-159" value="owns" style="rhombus;whiteSpace=wrap;html=1;fillColor=#216BFF;" parent="1" vertex="1">
          <mxGeometry x="970" y="70" width="140" height="80" as="geometry" />
        </mxCell>
        <mxCell id="X4g94l9QdzFIB3vsX_Z2-163" value="" style="curved=1;endArrow=none;html=1;rounded=0;endFill=0;strokeWidth=3;" parent="1" edge="1">
          <mxGeometry width="50" height="50" relative="1" as="geometry">
            <mxPoint x="812" y="120" as="sourcePoint" />
            <mxPoint x="812" y="100" as="targetPoint" />
            <Array as="points">
              <mxPoint x="802" y="120" />
              <mxPoint x="802" y="100" />
            </Array>
          </mxGeometry>
        </mxCell>
        <mxCell id="X4g94l9QdzFIB3vsX_Z2-172" style="rounded=0;orthogonalLoop=1;jettySize=auto;html=1;endArrow=none;endFill=0;" parent="1" source="X4g94l9QdzFIB3vsX_Z2-167" target="X4g94l9QdzFIB3vsX_Z2-35" edge="1">
          <mxGeometry relative="1" as="geometry" />
        </mxCell>
        <mxCell id="X4g94l9QdzFIB3vsX_Z2-167" value="" style="rhombus;whiteSpace=wrap;html=1;" parent="1" vertex="1">
          <mxGeometry x="1213.5" y="241" width="175" height="100" as="geometry" />
        </mxCell>
        <mxCell id="X4g94l9QdzFIB3vsX_Z2-164" value="&lt;span style=&quot;font-size: 12px;&quot;&gt;IncludedIn&lt;/span&gt;" style="rhombus;whiteSpace=wrap;html=1;fillColor=#216BFF;" parent="1" vertex="1">
          <mxGeometry x="1231.5" y="250" width="140" height="80" as="geometry" />
        </mxCell>
        <mxCell id="X4g94l9QdzFIB3vsX_Z2-170" value="Programme Course" style="rounded=0;whiteSpace=wrap;html=1;strokeWidth=3;fillColor=#FF7729;" parent="1" vertex="1">
          <mxGeometry x="970" y="354.5" width="120" height="60" as="geometry" />
        </mxCell>
        <mxCell id="X4g94l9QdzFIB3vsX_Z2-168" style="edgeStyle=orthogonalEdgeStyle;rounded=0;orthogonalLoop=1;jettySize=auto;html=1;exitX=0.5;exitY=1;exitDx=0;exitDy=0;" parent="1" source="X4g94l9QdzFIB3vsX_Z2-164" target="X4g94l9QdzFIB3vsX_Z2-164" edge="1">
          <mxGeometry relative="1" as="geometry" />
        </mxCell>
        <mxCell id="X4g94l9QdzFIB3vsX_Z2-175" style="rounded=0;orthogonalLoop=1;jettySize=auto;html=1;endArrow=none;endFill=0;edgeStyle=orthogonalEdgeStyle;" parent="1" source="X4g94l9QdzFIB3vsX_Z2-173" target="X4g94l9QdzFIB3vsX_Z2-25" edge="1">
          <mxGeometry relative="1" as="geometry" />
        </mxCell>
        <mxCell id="X4g94l9QdzFIB3vsX_Z2-173" value="BelongsTo" style="rhombus;whiteSpace=wrap;html=1;fillColor=#216BFF;" parent="1" vertex="1">
          <mxGeometry x="790" y="242" width="140" height="80" as="geometry" />
        </mxCell>
        <mxCell id="X4g94l9QdzFIB3vsX_Z2-178" style="edgeStyle=orthogonalEdgeStyle;rounded=0;orthogonalLoop=1;jettySize=auto;html=1;endArrow=none;endFill=0;" parent="1" source="X4g94l9QdzFIB3vsX_Z2-177" target="X4g94l9QdzFIB3vsX_Z2-1" edge="1">
          <mxGeometry relative="1" as="geometry" />
        </mxCell>
        <mxCell id="X4g94l9QdzFIB3vsX_Z2-182" style="edgeStyle=orthogonalEdgeStyle;rounded=0;orthogonalLoop=1;jettySize=auto;html=1;endArrow=none;endFill=0;" parent="1" source="X4g94l9QdzFIB3vsX_Z2-177" target="X4g94l9QdzFIB3vsX_Z2-194" edge="1">
          <mxGeometry relative="1" as="geometry">
            <mxPoint x="610" y="-265.2499999999998" as="targetPoint" />
            <Array as="points">
              <mxPoint x="670" y="-130" />
            </Array>
          </mxGeometry>
        </mxCell>
        <mxCell id="X4g94l9QdzFIB3vsX_Z2-177" value="examines" style="rhombus;whiteSpace=wrap;html=1;fillColor=#216BFF;" parent="1" vertex="1">
          <mxGeometry x="375" y="-80" width="140" height="80" as="geometry" />
        </mxCell>
        <mxCell id="X4g94l9QdzFIB3vsX_Z2-179" value="" style="curved=1;endArrow=none;html=1;rounded=0;endFill=0;strokeWidth=3;" parent="1" edge="1">
          <mxGeometry width="50" height="50" relative="1" as="geometry">
            <mxPoint x="260" y="68" as="sourcePoint" />
            <mxPoint x="240" y="68" as="targetPoint" />
            <Array as="points">
              <mxPoint x="260" y="78" />
              <mxPoint x="240" y="78" />
            </Array>
          </mxGeometry>
        </mxCell>
        <mxCell id="X4g94l9QdzFIB3vsX_Z2-184" style="edgeStyle=orthogonalEdgeStyle;rounded=0;orthogonalLoop=1;jettySize=auto;html=1;exitX=0.5;exitY=1;exitDx=0;exitDy=0;" parent="1" edge="1">
          <mxGeometry relative="1" as="geometry">
            <mxPoint x="1261.5" y="-246.25" as="sourcePoint" />
            <mxPoint x="1261.5" y="-246.25" as="targetPoint" />
          </mxGeometry>
        </mxCell>
        <mxCell id="X4g94l9QdzFIB3vsX_Z2-185" value="" style="rhombus;whiteSpace=wrap;html=1;" parent="1" vertex="1">
          <mxGeometry x="1212.5" y="-315.25" width="175" height="100" as="geometry" />
        </mxCell>
        <mxCell id="X4g94l9QdzFIB3vsX_Z2-191" style="edgeStyle=orthogonalEdgeStyle;rounded=0;orthogonalLoop=1;jettySize=auto;html=1;endArrow=none;endFill=0;" parent="1" source="X4g94l9QdzFIB3vsX_Z2-186" target="X4g94l9QdzFIB3vsX_Z2-35" edge="1">
          <mxGeometry relative="1" as="geometry" />
        </mxCell>
        <mxCell id="X4g94l9QdzFIB3vsX_Z2-186" value="&lt;span style=&quot;font-size: 12px;&quot;&gt;hasExecution&lt;/span&gt;" style="rhombus;whiteSpace=wrap;html=1;fillColor=#216BFF;" parent="1" vertex="1">
          <mxGeometry x="1230.5" y="-306.25" width="140" height="80" as="geometry" />
        </mxCell>
        <mxCell id="X4g94l9QdzFIB3vsX_Z2-187" style="edgeStyle=orthogonalEdgeStyle;rounded=0;orthogonalLoop=1;jettySize=auto;html=1;exitX=0.5;exitY=1;exitDx=0;exitDy=0;" parent="1" source="X4g94l9QdzFIB3vsX_Z2-186" target="X4g94l9QdzFIB3vsX_Z2-186" edge="1">
          <mxGeometry relative="1" as="geometry" />
        </mxCell>
        <mxCell id="X4g94l9QdzFIB3vsX_Z2-192" value="" style="rounded=0;whiteSpace=wrap;html=1;strokeWidth=3;" parent="1" vertex="1">
          <mxGeometry x="597.5" y="-308.25" width="145" height="85" as="geometry" />
        </mxCell>
        <mxCell id="X4g94l9QdzFIB3vsX_Z2-188" value="" style="curved=1;endArrow=none;html=1;rounded=0;endFill=0;strokeWidth=3;" parent="1" edge="1">
          <mxGeometry width="50" height="50" relative="1" as="geometry">
            <mxPoint x="1309.5" y="63" as="sourcePoint" />
            <mxPoint x="1289.5" y="63" as="targetPoint" />
            <Array as="points">
              <mxPoint x="1309.5" y="73" />
              <mxPoint x="1289.5" y="73" />
            </Array>
          </mxGeometry>
        </mxCell>
        <mxCell id="X4g94l9QdzFIB3vsX_Z2-194" value="Course Instance" style="rounded=0;whiteSpace=wrap;html=1;strokeWidth=3;fillColor=#FF7729;" parent="1" vertex="1">
          <mxGeometry x="610" y="-295.25" width="120" height="60" as="geometry" />
        </mxCell>
        <mxCell id="JDC6ibPOijJ4rvLME-x0-11" style="rounded=0;orthogonalLoop=1;jettySize=auto;html=1;entryX=0.75;entryY=1;entryDx=0;entryDy=0;endArrow=none;endFill=0;" parent="1" source="X4g94l9QdzFIB3vsX_Z2-196" target="X4g94l9QdzFIB3vsX_Z2-192" edge="1">
          <mxGeometry relative="1" as="geometry" />
        </mxCell>
        <mxCell id="X4g94l9QdzFIB3vsX_Z2-196" value="assistantHours" style="ellipse;whiteSpace=wrap;html=1;fillColor=#00EB00;" parent="1" vertex="1">
          <mxGeometry x="693" y="-140" width="120" height="50" as="geometry" />
        </mxCell>
        <mxCell id="X4g94l9QdzFIB3vsX_Z2-198" value="seniorHours" style="ellipse;whiteSpace=wrap;html=1;fillColor=#00EB00;" parent="1" vertex="1">
          <mxGeometry x="800" y="-183.25" width="120" height="50" as="geometry" />
        </mxCell>
        <mxCell id="X4g94l9QdzFIB3vsX_Z2-201" style="edgeStyle=orthogonalEdgeStyle;rounded=0;orthogonalLoop=1;jettySize=auto;html=1;exitX=0.5;exitY=1;exitDx=0;exitDy=0;" parent="1" edge="1">
          <mxGeometry relative="1" as="geometry">
            <mxPoint x="920" y="-160" as="sourcePoint" />
            <mxPoint x="920" y="-160" as="targetPoint" />
          </mxGeometry>
        </mxCell>
        <mxCell id="X4g94l9QdzFIB3vsX_Z2-204" value="planningNumStudents" style="ellipse;whiteSpace=wrap;html=1;fillColor=#00EB00;" parent="1" vertex="1">
          <mxGeometry x="837.5" y="-250" width="120" height="50" as="geometry" />
        </mxCell>
        <mxCell id="X4g94l9QdzFIB3vsX_Z2-206" style="edgeStyle=orthogonalEdgeStyle;rounded=0;orthogonalLoop=1;jettySize=auto;html=1;exitX=0.5;exitY=1;exitDx=0;exitDy=0;" parent="1" edge="1">
          <mxGeometry relative="1" as="geometry">
            <mxPoint x="849" y="-181" as="sourcePoint" />
            <mxPoint x="849" y="-181" as="targetPoint" />
          </mxGeometry>
        </mxCell>
        <mxCell id="X4g94l9QdzFIB3vsX_Z2-209" style="edgeStyle=orthogonalEdgeStyle;rounded=0;orthogonalLoop=1;jettySize=auto;html=1;exitX=0.5;exitY=1;exitDx=0;exitDy=0;" parent="1" edge="1">
          <mxGeometry relative="1" as="geometry">
            <mxPoint x="888" y="-161" as="sourcePoint" />
            <mxPoint x="888" y="-161" as="targetPoint" />
          </mxGeometry>
        </mxCell>
        <mxCell id="X4g94l9QdzFIB3vsX_Z2-216" style="edgeStyle=orthogonalEdgeStyle;rounded=0;orthogonalLoop=1;jettySize=auto;html=1;exitX=0.5;exitY=1;exitDx=0;exitDy=0;" parent="1" edge="1">
          <mxGeometry relative="1" as="geometry">
            <mxPoint x="299" y="-246.25" as="sourcePoint" />
            <mxPoint x="299" y="-246.25" as="targetPoint" />
          </mxGeometry>
        </mxCell>
        <mxCell id="X4g94l9QdzFIB3vsX_Z2-227" style="edgeStyle=orthogonalEdgeStyle;rounded=0;orthogonalLoop=1;jettySize=auto;html=1;endArrow=none;endFill=0;" parent="1" source="X4g94l9QdzFIB3vsX_Z2-217" target="X4g94l9QdzFIB3vsX_Z2-192" edge="1">
          <mxGeometry relative="1" as="geometry" />
        </mxCell>
        <mxCell id="X4g94l9QdzFIB3vsX_Z2-217" value="" style="rhombus;whiteSpace=wrap;html=1;" parent="1" vertex="1">
          <mxGeometry x="250.5" y="-315.25" width="175" height="100" as="geometry" />
        </mxCell>
        <mxCell id="X4g94l9QdzFIB3vsX_Z2-218" value="&lt;span style=&quot;font-size: 12px;&quot;&gt;given&lt;/span&gt;" style="rhombus;whiteSpace=wrap;html=1;fillColor=#216BFF;" parent="1" vertex="1">
          <mxGeometry x="268" y="-306.25" width="140" height="80" as="geometry" />
        </mxCell>
        <mxCell id="X4g94l9QdzFIB3vsX_Z2-219" style="edgeStyle=orthogonalEdgeStyle;rounded=0;orthogonalLoop=1;jettySize=auto;html=1;exitX=0.5;exitY=1;exitDx=0;exitDy=0;" parent="1" source="X4g94l9QdzFIB3vsX_Z2-218" target="X4g94l9QdzFIB3vsX_Z2-218" edge="1">
          <mxGeometry relative="1" as="geometry" />
        </mxCell>
        <mxCell id="X4g94l9QdzFIB3vsX_Z2-224" value="" style="rounded=0;whiteSpace=wrap;html=1;strokeWidth=3;" parent="1" vertex="1">
          <mxGeometry x="-60" y="-428.75" width="145" height="85" as="geometry" />
        </mxCell>
        <mxCell id="X4g94l9QdzFIB3vsX_Z2-225" value="Hour information" style="rounded=0;whiteSpace=wrap;html=1;strokeWidth=3;fillColor=#FF7729;" parent="1" vertex="1">
          <mxGeometry x="-47.5" y="-416.25" width="120" height="60" as="geometry" />
        </mxCell>
        <mxCell id="X4g94l9QdzFIB3vsX_Z2-228" value="" style="curved=1;endArrow=none;html=1;rounded=0;endFill=0;strokeWidth=3;" parent="1" edge="1">
          <mxGeometry width="50" height="50" relative="1" as="geometry">
            <mxPoint x="585" y="-255.75" as="sourcePoint" />
            <mxPoint x="585" y="-276.75" as="targetPoint" />
            <Array as="points">
              <mxPoint x="595" y="-255.75" />
              <mxPoint x="595" y="-275.75" />
            </Array>
          </mxGeometry>
        </mxCell>
        <mxCell id="X4g94l9QdzFIB3vsX_Z2-241" value="" style="curved=1;endArrow=none;html=1;rounded=0;endFill=0;strokeWidth=3;" parent="1" edge="1">
          <mxGeometry width="50" height="50" relative="1" as="geometry">
            <mxPoint x="624" y="-320.75" as="sourcePoint" />
            <mxPoint x="604" y="-320.75" as="targetPoint" />
            <Array as="points">
              <mxPoint x="624" y="-310.75" />
              <mxPoint x="604" y="-310.75" />
            </Array>
          </mxGeometry>
        </mxCell>
        <mxCell id="X4g94l9QdzFIB3vsX_Z2-245" style="edgeStyle=orthogonalEdgeStyle;rounded=0;orthogonalLoop=1;jettySize=auto;html=1;endArrow=none;endFill=0;" parent="1" source="X4g94l9QdzFIB3vsX_Z2-242" target="X4g94l9QdzFIB3vsX_Z2-50" edge="1">
          <mxGeometry relative="1" as="geometry" />
        </mxCell>
        <mxCell id="X4g94l9QdzFIB3vsX_Z2-242" value="enrollsIn" style="rhombus;whiteSpace=wrap;html=1;fillColor=#216BFF;" parent="1" vertex="1">
          <mxGeometry x="957.5" y="504.5" width="140" height="80" as="geometry" />
        </mxCell>
        <mxCell id="X4g94l9QdzFIB3vsX_Z2-251" value="" style="rounded=0;whiteSpace=wrap;html=1;strokeWidth=3;" parent="1" vertex="1">
          <mxGeometry x="365" y="505.75" width="145" height="85" as="geometry" />
        </mxCell>
        <mxCell id="X4g94l9QdzFIB3vsX_Z2-252" value="Registration" style="rounded=0;whiteSpace=wrap;html=1;strokeWidth=3;fillColor=#FF7729;" parent="1" vertex="1">
          <mxGeometry x="377.5" y="518.25" width="120" height="60" as="geometry" />
        </mxCell>
        <mxCell id="X4g94l9QdzFIB3vsX_Z2-253" style="edgeStyle=orthogonalEdgeStyle;rounded=0;orthogonalLoop=1;jettySize=auto;html=1;exitX=0.5;exitY=1;exitDx=0;exitDy=0;" parent="1" edge="1">
          <mxGeometry relative="1" as="geometry">
            <mxPoint x="724" y="562.75" as="sourcePoint" />
            <mxPoint x="724" y="562.75" as="targetPoint" />
          </mxGeometry>
        </mxCell>
        <mxCell id="X4g94l9QdzFIB3vsX_Z2-259" style="rounded=0;orthogonalLoop=1;jettySize=auto;html=1;entryX=0.991;entryY=0.399;entryDx=0;entryDy=0;endArrow=none;endFill=0;entryPerimeter=0;" parent="1" source="X4g94l9QdzFIB3vsX_Z2-254" target="X4g94l9QdzFIB3vsX_Z2-251" edge="1">
          <mxGeometry relative="1" as="geometry" />
        </mxCell>
        <mxCell id="X4g94l9QdzFIB3vsX_Z2-254" value="" style="rhombus;whiteSpace=wrap;html=1;" parent="1" vertex="1">
          <mxGeometry x="675" y="493.75" width="175" height="100" as="geometry" />
        </mxCell>
        <mxCell id="X4g94l9QdzFIB3vsX_Z2-255" value="&lt;span style=&quot;font-size: 12px;&quot;&gt;register&lt;/span&gt;" style="rhombus;whiteSpace=wrap;html=1;fillColor=#216BFF;" parent="1" vertex="1">
          <mxGeometry x="693" y="502.75" width="140" height="80" as="geometry" />
        </mxCell>
        <mxCell id="X4g94l9QdzFIB3vsX_Z2-256" style="edgeStyle=orthogonalEdgeStyle;rounded=0;orthogonalLoop=1;jettySize=auto;html=1;exitX=0.5;exitY=1;exitDx=0;exitDy=0;" parent="1" source="X4g94l9QdzFIB3vsX_Z2-255" target="X4g94l9QdzFIB3vsX_Z2-255" edge="1">
          <mxGeometry relative="1" as="geometry" />
        </mxCell>
        <mxCell id="X4g94l9QdzFIB3vsX_Z2-258" value="" style="curved=1;endArrow=none;html=1;rounded=0;endFill=0;strokeWidth=3;" parent="1" edge="1">
          <mxGeometry width="50" height="50" relative="1" as="geometry">
            <mxPoint x="954.5" y="715" as="sourcePoint" />
            <mxPoint x="954.5" y="695" as="targetPoint" />
            <Array as="points">
              <mxPoint x="964.5" y="715" />
              <mxPoint x="964.5" y="695" />
            </Array>
          </mxGeometry>
        </mxCell>
        <mxCell id="IT_xZYxQ61ZV-D8Yhbmj-2" style="edgeStyle=orthogonalEdgeStyle;rounded=0;orthogonalLoop=1;jettySize=auto;html=1;entryX=0.182;entryY=0.997;entryDx=0;entryDy=0;entryPerimeter=0;endArrow=none;endFill=0;" parent="1" source="X4g94l9QdzFIB3vsX_Z2-268" target="X4g94l9QdzFIB3vsX_Z2-192" edge="1">
          <mxGeometry relative="1" as="geometry">
            <Array as="points">
              <mxPoint x="-65" y="-130" />
              <mxPoint x="301" y="-130" />
              <mxPoint x="301" y="-180" />
              <mxPoint x="620" y="-180" />
              <mxPoint x="620" y="-223" />
            </Array>
          </mxGeometry>
        </mxCell>
        <mxCell id="X4g94l9QdzFIB3vsX_Z2-268" value="workIn" style="rhombus;whiteSpace=wrap;html=1;fillColor=#216BFF;" parent="1" vertex="1">
          <mxGeometry x="-135" y="-43.25" width="140" height="80" as="geometry" />
        </mxCell>
        <mxCell id="X4g94l9QdzFIB3vsX_Z2-272" value="" style="curved=1;endArrow=none;html=1;rounded=0;endFill=0;strokeWidth=3;" parent="1" edge="1">
          <mxGeometry width="50" height="50" relative="1" as="geometry">
            <mxPoint x="1310" y="148" as="sourcePoint" />
            <mxPoint x="1290" y="148" as="targetPoint" />
            <Array as="points">
              <mxPoint x="1310" y="138" />
              <mxPoint x="1290" y="138" />
            </Array>
          </mxGeometry>
        </mxCell>
        <mxCell id="IT_xZYxQ61ZV-D8Yhbmj-1" value="ISA" style="triangle;whiteSpace=wrap;html=1;direction=north;" parent="1" vertex="1">
          <mxGeometry x="-370" y="85" width="80" height="60" as="geometry" />
        </mxCell>
        <mxCell id="IT_xZYxQ61ZV-D8Yhbmj-4" style="edgeStyle=orthogonalEdgeStyle;rounded=0;orthogonalLoop=1;jettySize=auto;html=1;entryX=0.01;entryY=0.585;entryDx=0;entryDy=0;entryPerimeter=0;endArrow=none;endFill=0;" parent="1" source="IT_xZYxQ61ZV-D8Yhbmj-1" target="X4g94l9QdzFIB3vsX_Z2-1" edge="1">
          <mxGeometry relative="1" as="geometry" />
        </mxCell>
        <mxCell id="IT_xZYxQ61ZV-D8Yhbmj-5" value="" style="curved=1;endArrow=none;html=1;rounded=0;endFill=0;strokeWidth=3;" parent="1" edge="1">
          <mxGeometry width="50" height="50" relative="1" as="geometry">
            <mxPoint x="750" y="153" as="sourcePoint" />
            <mxPoint x="730" y="153" as="targetPoint" />
            <Array as="points">
              <mxPoint x="750" y="143" />
              <mxPoint x="730" y="143" />
            </Array>
          </mxGeometry>
        </mxCell>
        <mxCell id="JDC6ibPOijJ4rvLME-x0-2" style="rounded=0;orthogonalLoop=1;jettySize=auto;html=1;entryX=0.25;entryY=0;entryDx=0;entryDy=0;endArrow=none;endFill=0;" parent="1" source="JDC6ibPOijJ4rvLME-x0-1" target="X4g94l9QdzFIB3vsX_Z2-224" edge="1">
          <mxGeometry relative="1" as="geometry" />
        </mxCell>
        <mxCell id="JDC6ibPOijJ4rvLME-x0-1" value="reportedHours" style="ellipse;whiteSpace=wrap;html=1;fillColor=#00EB00;" parent="1" vertex="1">
          <mxGeometry x="-125" y="-510" width="120" height="50" as="geometry" />
        </mxCell>
        <mxCell id="JDC6ibPOijJ4rvLME-x0-5" style="edgeStyle=orthogonalEdgeStyle;rounded=0;orthogonalLoop=1;jettySize=auto;html=1;entryX=0;entryY=0.5;entryDx=0;entryDy=0;endArrow=none;endFill=0;" parent="1" source="JDC6ibPOijJ4rvLME-x0-3" target="X4g94l9QdzFIB3vsX_Z2-224" edge="1">
          <mxGeometry relative="1" as="geometry" />
        </mxCell>
        <mxCell id="JDC6ibPOijJ4rvLME-x0-3" value="&lt;span style=&quot;font-size: 12px;&quot;&gt;associatedWith&lt;/span&gt;" style="rhombus;whiteSpace=wrap;html=1;fillColor=#216BFF;" parent="1" vertex="1">
          <mxGeometry x="-400" y="-295.25" width="140" height="80" as="geometry" />
        </mxCell>
        <mxCell id="JDC6ibPOijJ4rvLME-x0-6" value="" style="curved=1;endArrow=none;html=1;rounded=0;endFill=0;strokeWidth=3;" parent="1" edge="1">
          <mxGeometry width="50" height="50" relative="1" as="geometry">
            <mxPoint x="-320" y="-45.25" as="sourcePoint" />
            <mxPoint x="-340" y="-45.25" as="targetPoint" />
            <Array as="points">
              <mxPoint x="-320" y="-35.25" />
              <mxPoint x="-340" y="-35.25" />
            </Array>
          </mxGeometry>
        </mxCell>
        <mxCell id="JDC6ibPOijJ4rvLME-x0-7" style="edgeStyle=orthogonalEdgeStyle;rounded=0;orthogonalLoop=1;jettySize=auto;html=1;entryX=0.114;entryY=-0.022;entryDx=0;entryDy=0;entryPerimeter=0;endArrow=none;endFill=0;" parent="1" target="X4g94l9QdzFIB3vsX_Z2-192" edge="1">
          <mxGeometry relative="1" as="geometry">
            <mxPoint x="367" y="549.1555555555552" as="sourcePoint" />
            <mxPoint x="597.4699999999998" y="-307.9100000000002" as="targetPoint" />
            <Array as="points">
              <mxPoint x="-678" y="549" />
              <mxPoint x="-678" y="-559" />
              <mxPoint x="614" y="-559" />
            </Array>
          </mxGeometry>
        </mxCell>
        <mxCell id="JDC6ibPOijJ4rvLME-x0-9" value="&lt;span style=&quot;font-size: 12px;&quot;&gt;hasRegistration&lt;/span&gt;" style="rhombus;whiteSpace=wrap;html=1;fillColor=#216BFF;" parent="1" vertex="1">
          <mxGeometry x="-749" y="140" width="140" height="80" as="geometry" />
        </mxCell>
        <mxCell id="JDC6ibPOijJ4rvLME-x0-12" style="rounded=0;orthogonalLoop=1;jettySize=auto;html=1;entryX=0.994;entryY=0.857;entryDx=0;entryDy=0;entryPerimeter=0;endArrow=none;endFill=0;" parent="1" source="X4g94l9QdzFIB3vsX_Z2-198" target="X4g94l9QdzFIB3vsX_Z2-192" edge="1">
          <mxGeometry relative="1" as="geometry" />
        </mxCell>
        <mxCell id="JDC6ibPOijJ4rvLME-x0-13" style="rounded=0;orthogonalLoop=1;jettySize=auto;html=1;entryX=1.012;entryY=0.639;entryDx=0;entryDy=0;entryPerimeter=0;endArrow=none;endFill=0;" parent="1" source="X4g94l9QdzFIB3vsX_Z2-204" target="X4g94l9QdzFIB3vsX_Z2-192" edge="1">
          <mxGeometry relative="1" as="geometry" />
        </mxCell>
        <mxCell id="Joof8ZYWThNUWHMLA3d3-10" style="edgeStyle=orthogonalEdgeStyle;rounded=0;orthogonalLoop=1;jettySize=auto;html=1;entryX=1;entryY=0.5;entryDx=0;entryDy=0;endArrow=none;endFill=0;" edge="1" parent="1" source="Joof8ZYWThNUWHMLA3d3-2" target="Joof8ZYWThNUWHMLA3d3-6">
          <mxGeometry relative="1" as="geometry" />
        </mxCell>
        <mxCell id="Joof8ZYWThNUWHMLA3d3-15" style="edgeStyle=orthogonalEdgeStyle;rounded=0;orthogonalLoop=1;jettySize=auto;html=1;endArrow=none;endFill=0;" edge="1" parent="1" source="Joof8ZYWThNUWHMLA3d3-17" target="X4g94l9QdzFIB3vsX_Z2-11">
          <mxGeometry relative="1" as="geometry">
            <Array as="points">
              <mxPoint x="-230" y="240" />
              <mxPoint x="-230" y="20" />
            </Array>
          </mxGeometry>
        </mxCell>
        <mxCell id="Joof8ZYWThNUWHMLA3d3-2" value="" style="rounded=0;whiteSpace=wrap;html=1;strokeWidth=3;" vertex="1" parent="1">
          <mxGeometry x="105.5" y="887.5" width="145" height="85" as="geometry" />
        </mxCell>
        <mxCell id="Joof8ZYWThNUWHMLA3d3-13" style="edgeStyle=orthogonalEdgeStyle;rounded=0;orthogonalLoop=1;jettySize=auto;html=1;entryX=0.75;entryY=1;entryDx=0;entryDy=0;endArrow=none;endFill=0;" edge="1" parent="1" source="Joof8ZYWThNUWHMLA3d3-3" target="X4g94l9QdzFIB3vsX_Z2-35">
          <mxGeometry relative="1" as="geometry">
            <Array as="points">
              <mxPoint x="1400" y="930" />
              <mxPoint x="1400" y="210" />
              <mxPoint x="1330" y="210" />
            </Array>
          </mxGeometry>
        </mxCell>
        <mxCell id="Joof8ZYWThNUWHMLA3d3-3" value="Division" style="rounded=0;whiteSpace=wrap;html=1;strokeWidth=3;fillColor=#FF7729;" vertex="1" parent="1">
          <mxGeometry x="120.5" y="900" width="120" height="60" as="geometry" />
        </mxCell>
        <mxCell id="Joof8ZYWThNUWHMLA3d3-11" style="edgeStyle=orthogonalEdgeStyle;rounded=0;orthogonalLoop=1;jettySize=auto;html=1;endArrow=none;endFill=0;" edge="1" parent="1" source="Joof8ZYWThNUWHMLA3d3-4" target="Joof8ZYWThNUWHMLA3d3-6">
          <mxGeometry relative="1" as="geometry" />
        </mxCell>
        <mxCell id="Joof8ZYWThNUWHMLA3d3-21" style="edgeStyle=orthogonalEdgeStyle;rounded=0;orthogonalLoop=1;jettySize=auto;html=1;endArrow=none;endFill=0;" edge="1" parent="1" source="Joof8ZYWThNUWHMLA3d3-4" target="X4g94l9QdzFIB3vsX_Z2-11">
          <mxGeometry relative="1" as="geometry">
            <Array as="points">
              <mxPoint x="-420" y="749" />
              <mxPoint x="-420" y="130" />
              <mxPoint x="-380" y="130" />
            </Array>
          </mxGeometry>
        </mxCell>
        <mxCell id="Joof8ZYWThNUWHMLA3d3-24" style="edgeStyle=orthogonalEdgeStyle;rounded=0;orthogonalLoop=1;jettySize=auto;html=1;endArrow=none;endFill=0;" edge="1" parent="1" source="Joof8ZYWThNUWHMLA3d3-4" target="X4g94l9QdzFIB3vsX_Z2-25">
          <mxGeometry relative="1" as="geometry">
            <Array as="points">
              <mxPoint x="90" y="749" />
              <mxPoint x="90" y="330" />
              <mxPoint x="700" y="330" />
            </Array>
          </mxGeometry>
        </mxCell>
        <mxCell id="Joof8ZYWThNUWHMLA3d3-27" style="edgeStyle=orthogonalEdgeStyle;rounded=0;orthogonalLoop=1;jettySize=auto;html=1;entryX=0.093;entryY=-0.065;entryDx=0;entryDy=0;endArrow=none;endFill=0;entryPerimeter=0;" edge="1" parent="1" source="Joof8ZYWThNUWHMLA3d3-4" target="X4g94l9QdzFIB3vsX_Z2-35">
          <mxGeometry relative="1" as="geometry">
            <Array as="points">
              <mxPoint x="-100" y="610" />
              <mxPoint x="-790" y="610" />
              <mxPoint x="-790" y="-640" />
              <mxPoint x="1190" y="-640" />
              <mxPoint x="1190" y="-20" />
              <mxPoint x="1250" y="-20" />
              <mxPoint x="1250" y="75" />
            </Array>
          </mxGeometry>
        </mxCell>
        <mxCell id="Joof8ZYWThNUWHMLA3d3-4" value="Dept" style="rounded=0;whiteSpace=wrap;html=1;strokeWidth=3;fillColor=#FF7729;" vertex="1" parent="1">
          <mxGeometry x="-160" y="719" width="120" height="60" as="geometry" />
        </mxCell>
        <mxCell id="Joof8ZYWThNUWHMLA3d3-5" style="edgeStyle=orthogonalEdgeStyle;rounded=0;orthogonalLoop=1;jettySize=auto;html=1;exitX=0.5;exitY=1;exitDx=0;exitDy=0;" edge="1" parent="1">
          <mxGeometry relative="1" as="geometry">
            <mxPoint x="-138.5" y="949" as="sourcePoint" />
            <mxPoint x="-138.5" y="949" as="targetPoint" />
          </mxGeometry>
        </mxCell>
        <mxCell id="Joof8ZYWThNUWHMLA3d3-6" value="" style="rhombus;whiteSpace=wrap;html=1;" vertex="1" parent="1">
          <mxGeometry x="-187.5" y="880" width="175" height="100" as="geometry" />
        </mxCell>
        <mxCell id="Joof8ZYWThNUWHMLA3d3-7" value="&lt;span style=&quot;font-size: 12px;&quot;&gt;hasDept&lt;/span&gt;" style="rhombus;whiteSpace=wrap;html=1;fillColor=#216BFF;" vertex="1" parent="1">
          <mxGeometry x="-169.5" y="889" width="140" height="80" as="geometry" />
        </mxCell>
        <mxCell id="Joof8ZYWThNUWHMLA3d3-8" style="edgeStyle=orthogonalEdgeStyle;rounded=0;orthogonalLoop=1;jettySize=auto;html=1;exitX=0.5;exitY=1;exitDx=0;exitDy=0;" edge="1" parent="1" source="Joof8ZYWThNUWHMLA3d3-7" target="Joof8ZYWThNUWHMLA3d3-7">
          <mxGeometry relative="1" as="geometry" />
        </mxCell>
        <mxCell id="Joof8ZYWThNUWHMLA3d3-12" value="" style="curved=1;endArrow=none;html=1;rounded=0;endFill=0;strokeWidth=3;" edge="1" parent="1">
          <mxGeometry width="50" height="50" relative="1" as="geometry">
            <mxPoint x="-89.5" y="791" as="sourcePoint" />
            <mxPoint x="-109.5" y="791" as="targetPoint" />
            <Array as="points">
              <mxPoint x="-89.5" y="781" />
              <mxPoint x="-109.5" y="781" />
            </Array>
          </mxGeometry>
        </mxCell>
        <mxCell id="Joof8ZYWThNUWHMLA3d3-14" value="" style="curved=1;endArrow=none;html=1;rounded=0;endFill=0;strokeWidth=3;" edge="1" parent="1">
          <mxGeometry width="50" height="50" relative="1" as="geometry">
            <mxPoint x="1340" y="148" as="sourcePoint" />
            <mxPoint x="1320" y="148" as="targetPoint" />
            <Array as="points">
              <mxPoint x="1340" y="138" />
              <mxPoint x="1320" y="138" />
            </Array>
          </mxGeometry>
        </mxCell>
        <mxCell id="Joof8ZYWThNUWHMLA3d3-16" value="" style="curved=1;endArrow=none;html=1;rounded=0;endFill=0;strokeWidth=3;" edge="1" parent="1">
          <mxGeometry width="50" height="50" relative="1" as="geometry">
            <mxPoint x="-258" y="31" as="sourcePoint" />
            <mxPoint x="-258" y="10" as="targetPoint" />
            <Array as="points">
              <mxPoint x="-268" y="31" />
              <mxPoint x="-268" y="11" />
            </Array>
          </mxGeometry>
        </mxCell>
        <mxCell id="Joof8ZYWThNUWHMLA3d3-18" value="" style="edgeStyle=orthogonalEdgeStyle;rounded=0;orthogonalLoop=1;jettySize=auto;html=1;endArrow=none;endFill=0;" edge="1" parent="1" source="Joof8ZYWThNUWHMLA3d3-2" target="Joof8ZYWThNUWHMLA3d3-17">
          <mxGeometry relative="1" as="geometry">
            <mxPoint x="178" y="888" as="sourcePoint" />
            <mxPoint x="-270" y="20" as="targetPoint" />
            <Array as="points">
              <mxPoint x="178" y="240" />
            </Array>
          </mxGeometry>
        </mxCell>
        <mxCell id="Joof8ZYWThNUWHMLA3d3-17" value="teacherDivision" style="rhombus;whiteSpace=wrap;html=1;fillColor=#216BFF;" vertex="1" parent="1">
          <mxGeometry x="-34.5" y="200" width="140" height="80" as="geometry" />
        </mxCell>
        <mxCell id="Joof8ZYWThNUWHMLA3d3-19" value="courseDivision" style="rhombus;whiteSpace=wrap;html=1;fillColor=#216BFF;" vertex="1" parent="1">
          <mxGeometry x="1010" y="887.5" width="140" height="80" as="geometry" />
        </mxCell>
        <mxCell id="Joof8ZYWThNUWHMLA3d3-22" value="teacherDept" style="rhombus;whiteSpace=wrap;html=1;fillColor=#216BFF;" vertex="1" parent="1">
          <mxGeometry x="-490" y="354.5" width="140" height="80" as="geometry" />
        </mxCell>
        <mxCell id="Joof8ZYWThNUWHMLA3d3-23" value="" style="curved=1;endArrow=none;html=1;rounded=0;endFill=0;strokeWidth=3;" edge="1" parent="1">
          <mxGeometry width="50" height="50" relative="1" as="geometry">
            <mxPoint x="-370" y="38.75" as="sourcePoint" />
            <mxPoint x="-390" y="38.75" as="targetPoint" />
            <Array as="points">
              <mxPoint x="-370" y="28.75" />
              <mxPoint x="-390" y="28.75" />
            </Array>
          </mxGeometry>
        </mxCell>
        <mxCell id="Joof8ZYWThNUWHMLA3d3-25" value="" style="curved=1;endArrow=none;html=1;rounded=0;endFill=0;strokeWidth=3;" edge="1" parent="1">
          <mxGeometry width="50" height="50" relative="1" as="geometry">
            <mxPoint x="710" y="153" as="sourcePoint" />
            <mxPoint x="690" y="153" as="targetPoint" />
            <Array as="points">
              <mxPoint x="710" y="143" />
              <mxPoint x="690" y="143" />
            </Array>
          </mxGeometry>
        </mxCell>
        <mxCell id="Joof8ZYWThNUWHMLA3d3-26" value="programmeDept" style="rhombus;whiteSpace=wrap;html=1;fillColor=#216BFF;" vertex="1" parent="1">
          <mxGeometry x="377.5" y="292" width="140" height="80" as="geometry" />
        </mxCell>
        <mxCell id="Joof8ZYWThNUWHMLA3d3-28" value="courseDept" style="rhombus;whiteSpace=wrap;html=1;fillColor=#216BFF;" vertex="1" parent="1">
          <mxGeometry x="920" y="-680" width="140" height="80" as="geometry" />
        </mxCell>
        <mxCell id="Joof8ZYWThNUWHMLA3d3-30" value="" style="curved=1;endArrow=none;html=1;rounded=0;endFill=0;strokeWidth=3;" edge="1" parent="1">
          <mxGeometry width="50" height="50" relative="1" as="geometry">
            <mxPoint x="1259.5" y="62" as="sourcePoint" />
            <mxPoint x="1239.5" y="62" as="targetPoint" />
            <Array as="points">
              <mxPoint x="1259.5" y="72" />
              <mxPoint x="1239.5" y="72" />
            </Array>
          </mxGeometry>
        </mxCell>
        <mxCell id="Joof8ZYWThNUWHMLA3d3-33" style="rounded=0;orthogonalLoop=1;jettySize=auto;html=1;endArrow=none;endFill=0;" edge="1" parent="1" source="Joof8ZYWThNUWHMLA3d3-32" target="Joof8ZYWThNUWHMLA3d3-4">
          <mxGeometry relative="1" as="geometry" />
        </mxCell>
        <mxCell id="Joof8ZYWThNUWHMLA3d3-32" value="name" style="ellipse;whiteSpace=wrap;html=1;fillColor=#00EB00;" vertex="1" parent="1">
          <mxGeometry x="-310" y="800" width="120" height="50" as="geometry" />
        </mxCell>
        <mxCell id="Joof8ZYWThNUWHMLA3d3-35" style="rounded=0;orthogonalLoop=1;jettySize=auto;html=1;endArrow=none;endFill=0;" edge="1" parent="1" source="Joof8ZYWThNUWHMLA3d3-34" target="Joof8ZYWThNUWHMLA3d3-2">
          <mxGeometry relative="1" as="geometry" />
        </mxCell>
        <mxCell id="Joof8ZYWThNUWHMLA3d3-34" value="name" style="ellipse;whiteSpace=wrap;html=1;fillColor=#00EB00;" vertex="1" parent="1">
          <mxGeometry x="268" y="779" width="120" height="50" as="geometry" />
        </mxCell>
      </root>
    </mxGraphModel>
  </diagram>
</mxfile>
